<svg width="20" height="17" viewBox="0 0 20 17" fill="none" xmlns="http://www.w3.org/2000/svg">
<g clip-path="url(#clip0_769_760)">
<path d="M16.7167 0.600098H2.95C2.16761 0.600098 1.41727 0.9109 0.864035 1.46413C0.310803 2.01737 0 2.76771 0 3.5501V13.3834C0 14.1658 0.310803 14.9162 0.864035 15.4694C1.41727 16.0226 2.16761 16.3334 2.95 16.3334H16.7167C17.4991 16.3334 18.2494 16.0226 18.8026 15.4694C19.3559 14.9162 19.6667 14.1658 19.6667 13.3834V3.5501C19.6667 2.76771 19.3559 2.01737 18.8026 1.46413C18.2494 0.9109 17.4991 0.600098 16.7167 0.600098ZM16.0578 2.56676L9.83333 7.2376L3.60883 2.56676H16.0578ZM16.7167 14.3668H2.95C2.6892 14.3668 2.43909 14.2632 2.25468 14.0788C2.07027 13.8943 1.96667 13.6442 1.96667 13.3834V3.79593L9.24333 9.25343C9.41354 9.38109 9.62057 9.4501 9.83333 9.4501C10.0461 9.4501 10.2531 9.38109 10.4233 9.25343L17.7 3.79593V13.3834C17.7 13.6442 17.5964 13.8943 17.412 14.0788C17.2276 14.2632 16.9775 14.3668 16.7167 14.3668Z" fill="#445964"/>
</g>
<defs>
<clipPath id="clip0_769_760">
<rect width="20" height="17" fill="white"/>
</clipPath>
</defs>
</svg>
