<svg width="20" height="22" viewBox="0 0 20 22" fill="none" xmlns="http://www.w3.org/2000/svg">
<mask id="mask0_760_8" style="mask-type:luminance" maskUnits="userSpaceOnUse" x="0" y="0" width="20" height="22">
<path d="M20 0H0V21.3333H20V0Z" fill="white"/>
</mask>
<g mask="url(#mask0_760_8)">
<path d="M7.75417 13.6959C7.75417 14.5668 7.3 15.9917 6.225 15.9917C5.15 15.9917 4.69583 14.5668 4.69583 13.6959C4.69583 12.8251 5.15 11.4001 6.225 11.4001C7.3 11.4001 7.75417 12.8251 7.75417 13.6959ZM20 11.5918C20 12.9209 19.8667 14.3293 19.2708 15.5501C17.6917 18.7418 13.35 18.6667 10.2417 18.6667C7.08333 18.6667 2.48333 18.7793 0.841667 15.5501C0.233333 14.3418 0 12.9209 0 11.5918C0 9.84594 0.579167 8.19594 1.72917 6.85844C1.5125 6.2001 1.40833 5.50841 1.40833 4.82508C1.40833 3.92925 1.6125 3.47925 2.01667 2.66675C3.90417 2.66675 5.1125 3.04175 6.55 4.16675C7.75833 3.87925 9 3.75008 10.2458 3.75008C11.3708 3.75008 12.5042 3.87091 13.5958 4.13341C15.0125 3.02091 16.2208 2.66675 18.0875 2.66675C18.4958 3.47925 18.6958 3.92925 18.6958 4.82508C18.6958 5.50841 18.5875 6.18758 18.375 6.83341C19.5208 8.18341 20 9.84594 20 11.5918ZM17.3208 13.6959C17.3208 11.8668 16.2083 10.2543 14.2583 10.2543C13.4708 10.2543 12.7167 10.3959 11.925 10.5043C11.3042 10.6001 10.6833 10.6376 10.0458 10.6376C9.4125 10.6376 8.79167 10.6001 8.16667 10.5043C7.3875 10.3959 6.625 10.2543 5.83333 10.2543C3.88333 10.2543 2.77083 11.8668 2.77083 13.6959C2.77083 17.3543 6.12083 17.9167 9.0375 17.9167H11.0458C13.975 17.9167 17.3208 17.3584 17.3208 13.6959ZM13.8792 11.4001C12.8042 11.4001 12.35 12.8251 12.35 13.6959C12.35 14.5668 12.8042 15.9917 13.8792 15.9917C14.9542 15.9917 15.4083 14.5668 15.4083 13.6959C15.4083 12.8251 14.9542 11.4001 13.8792 11.4001Z" fill="#445964"/>
</g>
</svg>
