<svg width="20" height="20" viewBox="0 0 20 20" fill="none" xmlns="http://www.w3.org/2000/svg">
<g clip-path="url(#clip0_762_6)">
<mask id="mask0_762_6" style="mask-type:luminance" maskUnits="userSpaceOnUse" x="0" y="0" width="20" height="20">
<path d="M20 0H0V20H20V0Z" fill="white"/>
</mask>
<g mask="url(#mask0_762_6)">
<path d="M4.47769 20H0.330357V6.64731H4.47769V20ZM2.40179 4.82589C1.07589 4.82589 0 3.72769 0 2.40179C0 1.76479 0.253044 1.15389 0.703467 0.703467C1.15389 0.253044 1.76479 0 2.40179 0C3.03879 0 3.64969 0.253044 4.1001 0.703467C4.55053 1.15389 4.80357 1.76479 4.80357 2.40179C4.80357 3.72769 3.72769 4.82589 2.40179 4.82589ZM19.9956 20H15.8571V13.5C15.8571 11.9509 15.8259 9.96429 13.7009 9.96429C11.5446 9.96429 11.2143 11.6473 11.2143 13.3884V20H7.07143V6.64731H11.0491V8.46874H11.1071C11.6607 7.41964 13.0134 6.3125 15.0313 6.3125C19.2277 6.3125 20 9.0759 20 12.6652V20H19.9956Z" fill="#445964"/>
</g>
</g>
<defs>
<clipPath id="clip0_762_6">
<rect width="20" height="20" fill="white"/>
</clipPath>
</defs>
</svg>
